<svg xmlns="http://www.w3.org/2000/svg" viewBox="0 0 760 220" role="img" aria-labelledby="t d">
  <title id="t">Luiz Bueno</title>
  <desc id="d">Pixel style logo for Luiz Bueno portfolio</desc>
  <rect width="760" height="220" fill="none"/>
  <g fill="#ffffff" shape-rendering="crispEdges">
    <rect x="20" y="20" width="12" height="72"/>
    <rect x="20" y="80" width="60" height="12"/>
    <rect x="92" y="20" width="12" height="60"/>
    <rect x="128" y="20" width="12" height="60"/>
    <rect x="92" y="80" width="48" height="12"/>
    <rect x="164" y="20" width="12" height="72"/>
    <rect x="188" y="20" width="60" height="12"/>
    <rect x="188" y="80" width="60" height="12"/>
    <rect x="236" y="32" width="12" height="48"/>
    <rect x="272" y="20" width="12" height="12"/>
    <rect x="272" y="32" width="12" height="48"/>
    <rect x="272" y="80" width="12" height="12"/>
    <rect x="308" y="20" width="60" height="12"/>
    <rect x="356" y="32" width="12" height="12"/>
    <rect x="344" y="44" width="12" height="12"/>
    <rect x="332" y="56" width="12" height="12"/>
    <rect x="320" y="68" width="12" height="12"/>
    <rect x="308" y="80" width="60" height="12"/>

    <rect x="420" y="20" width="12" height="72"/>
    <rect x="432" y="20" width="36" height="12"/>
    <rect x="432" y="44" width="36" height="12"/>
    <rect x="432" y="80" width="36" height="12"/>
    <rect x="468" y="32" width="12" height="12"/>
    <rect x="468" y="56" width="12" height="12"/>
    <rect x="500" y="20" width="12" height="72"/>
    <rect x="512" y="20" width="48" height="12"/>
    <rect x="512" y="44" width="36" height="12"/>
    <rect x="512" y="80" width="48" height="12"/>
    <rect x="560" y="32" width="12" height="12"/>
    <rect x="592" y="20" width="12" height="72"/>
    <rect x="604" y="32" width="12" height="12"/>
    <rect x="616" y="44" width="12" height="12"/>
    <rect x="628" y="56" width="12" height="12"/>
    <rect x="640" y="68" width="12" height="24"/>
    <rect x="676" y="20" width="48" height="12"/>
    <rect x="664" y="32" width="12" height="48"/>
    <rect x="724" y="32" width="12" height="48"/>
    <rect x="676" y="80" width="48" height="12"/>

    <rect x="20" y="122" width="720" height="8" fill="#00aaaa"/>
  </g>
</svg>
